<mxfile host="app.diagrams.net" modified="2023-03-28T13:16:29.462Z" agent="Mozilla/5.0 (Windows NT 10.0; Win64; x64) AppleWebKit/537.36 (KHTML, like Gecko) Chrome/111.0.0.0 Safari/537.36" etag="qMftkcD4j7TYlV4lT7ld" version="21.1.1" type="github">
  <diagram name="第1頁" id="CVr8SQuiVhqW5qeAEJfC">
    <mxGraphModel dx="893" dy="499" grid="1" gridSize="10" guides="1" tooltips="1" connect="1" arrows="1" fold="1" page="1" pageScale="1" pageWidth="827" pageHeight="1169" math="0" shadow="0">
      <root>
        <mxCell id="0" />
        <mxCell id="1" parent="0" />
        <mxCell id="_0a4XT0EOKOSwirypeSh-1" value="teams" style="rounded=0;whiteSpace=wrap;html=1;" parent="1" vertex="1">
          <mxGeometry x="210" y="380" width="80" height="40" as="geometry" />
        </mxCell>
        <mxCell id="_0a4XT0EOKOSwirypeSh-2" value="&lt;u&gt;name&lt;/u&gt;" style="ellipse;whiteSpace=wrap;html=1;" parent="1" vertex="1">
          <mxGeometry x="100" y="300" width="60" height="40" as="geometry" />
        </mxCell>
        <mxCell id="_0a4XT0EOKOSwirypeSh-3" value="" style="endArrow=none;html=1;rounded=0;entryX=0.5;entryY=1;entryDx=0;entryDy=0;exitX=0.08;exitY=-0.025;exitDx=0;exitDy=0;exitPerimeter=0;" parent="1" source="_0a4XT0EOKOSwirypeSh-1" target="_0a4XT0EOKOSwirypeSh-2" edge="1">
          <mxGeometry width="50" height="50" relative="1" as="geometry">
            <mxPoint x="270" y="310" as="sourcePoint" />
            <mxPoint x="320" y="260" as="targetPoint" />
          </mxGeometry>
        </mxCell>
        <mxCell id="_0a4XT0EOKOSwirypeSh-4" value="city" style="ellipse;whiteSpace=wrap;html=1;" parent="1" vertex="1">
          <mxGeometry x="140" y="260" width="60" height="40" as="geometry" />
        </mxCell>
        <mxCell id="_0a4XT0EOKOSwirypeSh-5" value="" style="endArrow=none;html=1;rounded=0;entryX=0.5;entryY=1;entryDx=0;entryDy=0;exitX=0.25;exitY=0;exitDx=0;exitDy=0;" parent="1" source="_0a4XT0EOKOSwirypeSh-1" target="_0a4XT0EOKOSwirypeSh-4" edge="1">
          <mxGeometry width="50" height="50" relative="1" as="geometry">
            <mxPoint x="270" y="310" as="sourcePoint" />
            <mxPoint x="320" y="260" as="targetPoint" />
          </mxGeometry>
        </mxCell>
        <mxCell id="_0a4XT0EOKOSwirypeSh-6" value="coach" style="ellipse;whiteSpace=wrap;html=1;" parent="1" vertex="1">
          <mxGeometry x="190" y="230" width="60" height="40" as="geometry" />
        </mxCell>
        <mxCell id="_0a4XT0EOKOSwirypeSh-7" value="" style="endArrow=none;html=1;rounded=0;entryX=0.5;entryY=1;entryDx=0;entryDy=0;exitX=0.434;exitY=-0.018;exitDx=0;exitDy=0;exitPerimeter=0;" parent="1" source="_0a4XT0EOKOSwirypeSh-1" target="_0a4XT0EOKOSwirypeSh-6" edge="1">
          <mxGeometry width="50" height="50" relative="1" as="geometry">
            <mxPoint x="300" y="360" as="sourcePoint" />
            <mxPoint x="390" y="240" as="targetPoint" />
          </mxGeometry>
        </mxCell>
        <mxCell id="_0a4XT0EOKOSwirypeSh-8" value="captain" style="ellipse;whiteSpace=wrap;html=1;" parent="1" vertex="1">
          <mxGeometry x="260" y="220" width="60" height="40" as="geometry" />
        </mxCell>
        <mxCell id="_0a4XT0EOKOSwirypeSh-9" value="" style="endArrow=none;html=1;rounded=0;entryX=0.5;entryY=1;entryDx=0;entryDy=0;exitX=0.577;exitY=-0.032;exitDx=0;exitDy=0;exitPerimeter=0;" parent="1" source="_0a4XT0EOKOSwirypeSh-1" target="_0a4XT0EOKOSwirypeSh-8" edge="1">
          <mxGeometry width="50" height="50" relative="1" as="geometry">
            <mxPoint x="305" y="369" as="sourcePoint" />
            <mxPoint x="450" y="230" as="targetPoint" />
          </mxGeometry>
        </mxCell>
        <mxCell id="_0a4XT0EOKOSwirypeSh-11" value="" style="endArrow=none;html=1;rounded=0;exitX=1;exitY=0.5;exitDx=0;exitDy=0;" parent="1" source="_0a4XT0EOKOSwirypeSh-1" target="_0a4XT0EOKOSwirypeSh-21" edge="1">
          <mxGeometry width="50" height="50" relative="1" as="geometry">
            <mxPoint x="283.9985714285713" y="380" as="sourcePoint" />
            <mxPoint x="390" y="400" as="targetPoint" />
          </mxGeometry>
        </mxCell>
        <mxCell id="FeP_p8FUg1Oh6Y4tP-c4-3" value="" style="edgeStyle=orthogonalEdgeStyle;rounded=0;orthogonalLoop=1;jettySize=auto;html=1;" edge="1" parent="1" source="_0a4XT0EOKOSwirypeSh-12" target="_0a4XT0EOKOSwirypeSh-21">
          <mxGeometry relative="1" as="geometry" />
        </mxCell>
        <mxCell id="_0a4XT0EOKOSwirypeSh-12" value="player" style="rounded=0;whiteSpace=wrap;html=1;" parent="1" vertex="1">
          <mxGeometry x="590" y="380" width="80" height="40" as="geometry" />
        </mxCell>
        <mxCell id="_0a4XT0EOKOSwirypeSh-13" value="&lt;u&gt;name&lt;/u&gt;" style="ellipse;whiteSpace=wrap;html=1;" parent="1" vertex="1">
          <mxGeometry x="500" y="270" width="60" height="40" as="geometry" />
        </mxCell>
        <mxCell id="_0a4XT0EOKOSwirypeSh-14" value="" style="endArrow=none;html=1;rounded=0;entryX=0.721;entryY=0.946;entryDx=0;entryDy=0;exitX=0.127;exitY=0.032;exitDx=0;exitDy=0;exitPerimeter=0;entryPerimeter=0;" parent="1" source="_0a4XT0EOKOSwirypeSh-12" target="_0a4XT0EOKOSwirypeSh-13" edge="1">
          <mxGeometry width="50" height="50" relative="1" as="geometry">
            <mxPoint x="626" y="359" as="sourcePoint" />
            <mxPoint x="540" y="320" as="targetPoint" />
          </mxGeometry>
        </mxCell>
        <mxCell id="_0a4XT0EOKOSwirypeSh-15" value="position" style="ellipse;whiteSpace=wrap;html=1;" parent="1" vertex="1">
          <mxGeometry x="560" y="230" width="60" height="40" as="geometry" />
        </mxCell>
        <mxCell id="_0a4XT0EOKOSwirypeSh-16" value="" style="endArrow=none;html=1;rounded=0;entryX=0.5;entryY=1;entryDx=0;entryDy=0;exitX=0.25;exitY=0;exitDx=0;exitDy=0;" parent="1" source="_0a4XT0EOKOSwirypeSh-12" target="_0a4XT0EOKOSwirypeSh-15" edge="1">
          <mxGeometry width="50" height="50" relative="1" as="geometry">
            <mxPoint x="670" y="380" as="sourcePoint" />
            <mxPoint x="760" y="260" as="targetPoint" />
          </mxGeometry>
        </mxCell>
        <mxCell id="_0a4XT0EOKOSwirypeSh-17" value="skill level" style="ellipse;whiteSpace=wrap;html=1;" parent="1" vertex="1">
          <mxGeometry x="630" y="220" width="60" height="40" as="geometry" />
        </mxCell>
        <mxCell id="_0a4XT0EOKOSwirypeSh-18" value="" style="endArrow=none;html=1;rounded=0;entryX=0.5;entryY=1;entryDx=0;entryDy=0;exitX=0.42;exitY=0.032;exitDx=0;exitDy=0;exitPerimeter=0;" parent="1" source="_0a4XT0EOKOSwirypeSh-12" target="_0a4XT0EOKOSwirypeSh-17" edge="1">
          <mxGeometry width="50" height="50" relative="1" as="geometry">
            <mxPoint x="635" y="380" as="sourcePoint" />
            <mxPoint x="820" y="240" as="targetPoint" />
          </mxGeometry>
        </mxCell>
        <mxCell id="_0a4XT0EOKOSwirypeSh-19" value="is_captain" style="ellipse;whiteSpace=wrap;html=1;" parent="1" vertex="1">
          <mxGeometry x="706" y="230" width="60" height="40" as="geometry" />
        </mxCell>
        <mxCell id="_0a4XT0EOKOSwirypeSh-20" value="" style="endArrow=none;html=1;rounded=0;entryX=0.5;entryY=1;entryDx=0;entryDy=0;" parent="1" source="_0a4XT0EOKOSwirypeSh-12" target="_0a4XT0EOKOSwirypeSh-19" edge="1">
          <mxGeometry width="50" height="50" relative="1" as="geometry">
            <mxPoint x="700" y="371" as="sourcePoint" />
            <mxPoint x="896" y="230" as="targetPoint" />
          </mxGeometry>
        </mxCell>
        <mxCell id="_0a4XT0EOKOSwirypeSh-21" value="own" style="rhombus;whiteSpace=wrap;html=1;" parent="1" vertex="1">
          <mxGeometry x="390" y="360" width="80" height="80" as="geometry" />
        </mxCell>
        <mxCell id="_0a4XT0EOKOSwirypeSh-26" value="host_team" style="ellipse;whiteSpace=wrap;html=1;" parent="1" vertex="1">
          <mxGeometry x="50" y="585" width="80" height="50" as="geometry" />
        </mxCell>
        <mxCell id="_0a4XT0EOKOSwirypeSh-27" value="" style="endArrow=none;html=1;rounded=0;entryX=0;entryY=0.5;entryDx=0;entryDy=0;exitX=0;exitY=1;exitDx=0;exitDy=0;" parent="1" source="_0a4XT0EOKOSwirypeSh-1" target="_0a4XT0EOKOSwirypeSh-35" edge="1">
          <mxGeometry width="50" height="50" relative="1" as="geometry">
            <mxPoint x="400" y="540" as="sourcePoint" />
            <mxPoint x="450" y="490" as="targetPoint" />
          </mxGeometry>
        </mxCell>
        <mxCell id="_0a4XT0EOKOSwirypeSh-28" value="guest_team" style="ellipse;whiteSpace=wrap;html=1;" parent="1" vertex="1">
          <mxGeometry x="140" y="585" width="80" height="50" as="geometry" />
        </mxCell>
        <mxCell id="_0a4XT0EOKOSwirypeSh-29" value="" style="endArrow=none;html=1;rounded=0;entryX=1;entryY=1;entryDx=0;entryDy=0;exitX=1;exitY=0.5;exitDx=0;exitDy=0;" parent="1" source="_0a4XT0EOKOSwirypeSh-35" target="_0a4XT0EOKOSwirypeSh-1" edge="1">
          <mxGeometry width="50" height="50" relative="1" as="geometry">
            <mxPoint x="456" y="559" as="sourcePoint" />
            <mxPoint x="540" y="461" as="targetPoint" />
          </mxGeometry>
        </mxCell>
        <mxCell id="_0a4XT0EOKOSwirypeSh-30" value="date" style="ellipse;whiteSpace=wrap;html=1;" parent="1" vertex="1">
          <mxGeometry x="280" y="585" width="80" height="50" as="geometry" />
        </mxCell>
        <mxCell id="_0a4XT0EOKOSwirypeSh-31" value="" style="endArrow=none;html=1;rounded=0;entryX=1;entryY=1;entryDx=0;entryDy=0;exitX=0.5;exitY=0;exitDx=0;exitDy=0;" parent="1" source="_0a4XT0EOKOSwirypeSh-30" target="_0a4XT0EOKOSwirypeSh-35" edge="1">
          <mxGeometry width="50" height="50" relative="1" as="geometry">
            <mxPoint x="536" y="568" as="sourcePoint" />
            <mxPoint x="620" y="470" as="targetPoint" />
          </mxGeometry>
        </mxCell>
        <mxCell id="_0a4XT0EOKOSwirypeSh-32" value="score" style="ellipse;whiteSpace=wrap;html=1;" parent="1" vertex="1">
          <mxGeometry x="370" y="585" width="80" height="50" as="geometry" />
        </mxCell>
        <mxCell id="_0a4XT0EOKOSwirypeSh-33" value="" style="endArrow=none;html=1;rounded=0;entryX=0.5;entryY=0;entryDx=0;entryDy=0;exitX=1;exitY=0.5;exitDx=0;exitDy=0;" parent="1" source="_0a4XT0EOKOSwirypeSh-35" target="_0a4XT0EOKOSwirypeSh-32" edge="1">
          <mxGeometry width="50" height="50" relative="1" as="geometry">
            <mxPoint x="636" y="598" as="sourcePoint" />
            <mxPoint x="720" y="500" as="targetPoint" />
          </mxGeometry>
        </mxCell>
        <mxCell id="_0a4XT0EOKOSwirypeSh-35" value="game" style="rhombus;whiteSpace=wrap;html=1;" parent="1" vertex="1">
          <mxGeometry x="210" y="475" width="80" height="80" as="geometry" />
        </mxCell>
        <mxCell id="_0a4XT0EOKOSwirypeSh-36" value="" style="endArrow=none;html=1;rounded=0;entryX=0;entryY=1;entryDx=0;entryDy=0;exitX=0.5;exitY=0;exitDx=0;exitDy=0;" parent="1" source="_0a4XT0EOKOSwirypeSh-28" target="_0a4XT0EOKOSwirypeSh-35" edge="1">
          <mxGeometry width="50" height="50" relative="1" as="geometry">
            <mxPoint x="240" y="580" as="sourcePoint" />
            <mxPoint x="450" y="430" as="targetPoint" />
          </mxGeometry>
        </mxCell>
        <mxCell id="_0a4XT0EOKOSwirypeSh-38" value="" style="endArrow=none;html=1;rounded=0;entryX=0;entryY=0.5;entryDx=0;entryDy=0;exitX=0.5;exitY=0;exitDx=0;exitDy=0;" parent="1" source="_0a4XT0EOKOSwirypeSh-26" target="_0a4XT0EOKOSwirypeSh-35" edge="1">
          <mxGeometry width="50" height="50" relative="1" as="geometry">
            <mxPoint x="400" y="480" as="sourcePoint" />
            <mxPoint x="450" y="430" as="targetPoint" />
          </mxGeometry>
        </mxCell>
        <mxCell id="_0a4XT0EOKOSwirypeSh-39" value="" style="endArrow=none;html=1;rounded=0;entryX=0.5;entryY=1;entryDx=0;entryDy=0;exitX=0.5;exitY=0;exitDx=0;exitDy=0;" parent="1" source="_0a4XT0EOKOSwirypeSh-41" target="_0a4XT0EOKOSwirypeSh-12" edge="1">
          <mxGeometry width="50" height="50" relative="1" as="geometry">
            <mxPoint x="630" y="490" as="sourcePoint" />
            <mxPoint x="450" y="370" as="targetPoint" />
          </mxGeometry>
        </mxCell>
        <mxCell id="_0a4XT0EOKOSwirypeSh-41" value="injury record" style="rounded=0;whiteSpace=wrap;html=1;" parent="1" vertex="1">
          <mxGeometry x="580" y="475" width="100" height="35" as="geometry" />
        </mxCell>
        <mxCell id="FeP_p8FUg1Oh6Y4tP-c4-1" value="host_team" style="text;html=1;align=center;verticalAlign=middle;resizable=0;points=[];autosize=1;strokeColor=none;fillColor=none;" vertex="1" parent="1">
          <mxGeometry x="290" y="445" width="80" height="30" as="geometry" />
        </mxCell>
        <mxCell id="FeP_p8FUg1Oh6Y4tP-c4-2" value="guest_team" style="text;html=1;align=center;verticalAlign=middle;resizable=0;points=[];autosize=1;strokeColor=none;fillColor=none;" vertex="1" parent="1">
          <mxGeometry x="115" y="445" width="90" height="30" as="geometry" />
        </mxCell>
      </root>
    </mxGraphModel>
  </diagram>
</mxfile>
